<?xml version="1.0" encoding="UTF-8"?>
<svg width="36px" height="36px" viewBox="0 0 36 36" version="1.1" xmlns="http://www.w3.org/2000/svg" xmlns:xlink="http://www.w3.org/1999/xlink">
    <title>切片</title>
    <defs>
        <polygon id="path-1" points="0 0.0282611548 6.08924515 0.0282611548 6.08924515 6.64298085 0 6.64298085"></polygon>
    </defs>
    <g id="页面-1" stroke="none" stroke-width="1" fill="none" fill-rule="evenodd">
        <g id="行情" transform="translate(-20.000000, -17.000000)">
            <g id="编组-4" transform="translate(20.000000, 17.000000)">
                <path d="M17.9512195,0.325 C22.8185406,0.325 27.2250953,2.29789475 30.4148198,5.48761925 C33.6045443,8.67734376 35.577439,13.0838984 35.577439,17.9512195 C35.577439,22.8185406 33.6045443,27.2250953 30.4148198,30.4148198 C27.2250953,33.6045443 22.8185406,35.577439 17.9512195,35.577439 C13.0838984,35.577439 8.67734376,33.6045443 5.48761925,30.4148198 C2.29789475,27.2250953 0.325,22.8185406 0.325,17.9512195 C0.325,13.0838984 2.29789475,8.67734376 5.48761925,5.48761925 C8.67734376,2.29789475 13.0838984,0.325 17.9512195,0.325 Z" id="Stroke-21" stroke="#001523" stroke-width="0.65" fill="#FFFFFF"></path>
                <g transform="translate(6.923077, 5.538462)">
                    <path d="M9.0914948,21.9334473 C9.28757797,22.1770175 9.83176654,22.6763484 10.9983061,22.6763484 C11.7140375,22.6763484 12.1973535,22.2297632 12.4288926,21.9516932 L11.8919545,21.0927038 L12.6555714,20.5777564 C12.657404,20.5803061 12.8990619,20.9074566 13.2773646,21.2094295 C13.5946353,21.4627202 14.0802619,21.7532994 14.5924206,21.6980837 C15.1655317,21.6366534 16.458119,21.3346008 16.7855882,19.8729406 L15.9405422,19.6338323 L16.1018866,18.731021 C16.1128819,18.7316584 17.3297768,18.8108566 17.7786726,18.1029334 C18.0819203,17.6247964 18.1817546,16.8450849 18.0161874,16.2489475 C17.9523668,16.0193206 17.82361,15.7215706 17.5684071,15.5668394 L16.4927781,15.3699594 L16.5687096,14.4559138 C16.7710075,14.451452 17.2510567,14.3732099 17.4335152,14.1606338 C17.4518408,14.1392805 17.4708037,14.1129874 17.4853048,14.0775315 L16.0743983,13.3962201 L5.17532896,13.0176784 L3.50188933,14.179517 C3.53208662,14.4599773 3.6943074,15.0466333 4.45864137,15.7137623 L3.88935479,16.4369833 L3.09418612,15.8735131 C2.89563299,16.1202704 2.64242196,16.5308419 2.63134697,17.0286589 C2.61445561,17.7870172 2.87268623,18.2107353 3.56610837,18.5103976 L4.30932814,17.7286145 L5.03159306,18.294236 C5.02537832,18.3039565 4.3576916,19.3758407 4.62213697,20.301519 C4.7758324,20.8395725 5.56319279,21.7093181 6.44704109,21.8472376 C7.19567884,21.9642023 7.8906945,21.5499657 8.51304545,20.61624 L10.0543819,18.3042752 L9.0914948,21.9334473 Z M10.9983061,23.5979632 C9.11229029,23.5979632 8.36691926,22.5392256 8.21178966,22.2780469 C7.50569901,22.7846283 6.82375025,22.8388082 6.30481904,22.7578571 C4.98028158,22.5510177 3.96193982,21.3454368 3.73597807,20.5546503 C3.63654214,20.2065449 3.62220043,19.8554915 3.65606282,19.5259507 L3.54013392,19.4864313 C2.26356154,19.0518772 1.68200482,18.2643574 1.70997117,17.0082618 C1.73761882,15.7620461 2.69931078,14.9469584 2.74026436,14.9129366 L2.74416849,14.9096699 C2.71899081,14.8440167 2.69636276,14.7779651 2.67636403,14.7115151 C2.53462004,14.240788 2.57844196,13.9191351 2.58864051,13.8594577 L2.62122809,13.6688721 L4.90124277,12.0859447 L16.3003601,12.4819355 L18.3857257,13.4891226 L18.4180743,13.7359595 C18.4697045,14.1308349 18.3701092,14.4863501 18.1298854,14.7642608 C18.1173762,14.7787619 18.1044687,14.7930239 18.0913221,14.8069673 C18.4759989,15.0567522 18.755264,15.4662083 18.9040992,16.0022699 C19.1406579,16.8535306 19.0011448,17.8960939 18.5570296,18.5964479 C18.3547317,18.9153918 18.0820797,19.139282 17.7904647,19.2960848 L17.762339,19.5852298 C17.5962938,21.2938066 16.4480001,22.426165 14.690502,22.6144399 C14.1782636,22.6692572 13.706182,22.5328515 13.302622,22.3229047 C13.0642307,22.665353 12.2956739,23.5979632 10.9983061,23.5979632 L10.9983061,23.5979632 Z" id="Fill-1" fill="#231815"></path>
                    <path d="M10.6094622,18.1861711 C14.9683888,18.0693658 16.390928,14.4495955 16.390928,14.4495955 L17.5493406,14.6554789 C17.8152201,14.4921426 18.0175977,14.2272192 17.9611869,13.7956928 L16.1873553,12.9390938 L5.03826196,12.5517877 L3.04285073,13.9371977 C3.04285073,13.9371977 2.99544338,14.2159848 3.13830285,14.6436071 L4.45837844,14.4495955 C4.45837844,14.4495955 6.25045596,18.3029765 10.6094622,18.1861711" id="Fill-3" fill="#CBE3EB"></path>
                    <path d="M17.5368633,14.6694095 C17.5410064,14.6668432 17.5452293,14.6646081 17.5492928,14.6620418 L16.5953294,14.4858801 C16.5832983,14.4864595 16.575729,14.4866251 16.575729,14.4866251 L17.5368633,14.6694095 Z" id="Fill-5" fill="#63DFD2"></path>
                    <path d="M17.7241422,15.1268912 L16.5756892,14.9166256 C16.5756892,14.9166256 17.1272877,14.9073832 17.5368234,14.6625382 L16.5756892,14.4866131 C16.5756892,14.4866131 16.5833381,14.4864537 16.5952895,14.485896 L16.39092,14.4495636 C16.39092,14.4495636 14.9683808,18.0694136 10.6094542,18.1861393 C6.25044799,18.3029446 4.45837047,14.4495636 4.45837047,14.4495636 L3.31557446,14.6175211 L3.13837455,14.6436549 C3.17773461,14.7613367 3.23167541,14.8904918 3.30489785,15.0280927 C3.47038536,15.3389096 3.7345917,15.6934688 4.15568052,16.0610152 L3.03519385,15.266962 C3.03519385,15.266962 2.2624142,15.9112239 2.17811676,16.8905243 C2.24281385,17.758278 2.70079276,18.283902 3.68861852,18.6202153 L4.64329898,17.6159763 C4.64329898,17.6159763 4.42697804,17.9548392 4.2673069,18.4415812 L4.64329898,18.0460685 C4.64329898,18.0460685 4.18237205,18.7680944 4.10986669,19.6189567 C4.12126039,19.7452435 4.14309167,19.8722474 4.17902565,19.9980562 C4.50601685,21.142366 6.93470736,23.3843751 8.89641554,20.441773 L8.71419603,21.1286617 C8.77538736,21.04787 8.83610064,20.9622978 8.89641554,20.8718653 L8.67332213,21.7128478 C8.88358767,22.0060562 9.53892457,22.7071273 10.9982742,22.7071273 C11.9597271,22.7071273 12.5799268,22.0764103 12.8412648,21.7420889 L12.2827345,20.8485201 C12.2827345,20.8485201 12.5461441,21.211286 12.973129,21.556045 C12.9796624,21.5456074 12.9833275,21.5393926 12.9833275,21.5393926 L12.2827345,20.4184279 C12.2827345,20.4184279 13.3336638,21.8663838 14.6414693,21.7262334 C15.8373297,21.598114 16.9351086,20.9226987 17.2392327,19.5224688 L16.0660004,19.1903783 C16.0660004,19.1903783 16.5906683,19.2313319 17.1446571,19.0656054 L16.0660004,18.7603658 C16.0660004,18.7603658 17.5606466,18.8770914 18.1677794,17.9196223 C18.3876061,17.5730308 18.5181157,17.1194341 18.5493488,16.6583478 C18.5028976,15.9965571 18.2393286,15.3844047 17.7241422,15.1268912" id="Fill-7" fill="#E6F9FF"></path>
                    <path d="M8.89642351,20.441773 C6.93471532,23.3843751 4.50594514,21.142366 4.17903362,19.9980562 C4.14309964,19.8722474 4.12126836,19.7452435 4.10987466,19.6189567 C4.08748564,19.8822866 4.10174768,20.1577273 4.17903362,20.4281484 C4.49598562,21.5372414 6.78731432,23.6774243 8.714204,21.1286617 L8.89642351,20.441773 Z" id="Fill-9" fill="#F8FCFF"></path>
                    <path d="M10.9982742,22.7071034 C9.53892457,22.7071034 8.88358767,22.0060323 8.67332213,21.7128238 L8.59292882,22.0161512 C8.59292882,22.0161512 9.15337135,23.1371159 10.9982742,23.1371159 C12.3060797,23.1371159 12.9833275,21.969461 12.9833275,21.969461 L12.8412648,21.7421447 C12.5799268,22.0763864 11.9597271,22.7071034 10.9982742,22.7071034" id="Fill-11" fill="#F8FCFF"></path>
                    <path d="M14.6414374,21.7262413 C13.3337117,21.8663918 12.2827026,20.4184359 12.2827026,20.4184359 L12.9832956,21.5394006 C12.9832956,21.5394006 12.9797102,21.5455357 12.9731768,21.5560529 C13.3992852,21.9001745 13.9883315,22.2262096 14.6414374,22.1562539 C15.9492429,22.0161831 17.140243,21.2221299 17.3037386,19.540643 L17.2392009,19.5224768 C16.9350767,20.9227067 15.8373775,21.598122 14.6414374,21.7262413" id="Fill-13" fill="#F8FCFF"></path>
                    <path d="M4.64332288,17.6159922 L3.68864242,18.6202313 C2.70081666,18.2839179 2.24283776,17.7582939 2.17814067,16.8905402 C2.17447556,16.9326093 2.17168689,16.9751564 2.1706511,17.0185002 C2.14722629,18.0693499 2.59102283,18.676642 3.68864242,19.0502438 L4.2673308,18.4415175 C4.42700194,17.9548551 4.64332288,17.6159922 4.64332288,17.6159922" id="Fill-15" fill="#F8FCFF"></path>
                    <path d="M18.5493887,16.6583239 C18.5180759,17.1194102 18.3876459,17.5730069 18.1678192,17.9195984 C17.5606865,18.8771472 16.0660403,18.7603419 16.0660403,18.7603419 L17.1446172,19.0655815 C17.5255492,18.9515648 17.9203449,18.7398651 18.1678192,18.3496906 C18.4560878,17.8950581 18.5912983,17.2564533 18.5493887,16.6583239" id="Fill-17" fill="#F8FCFF"></path>
                    <g id="编组" transform="translate(0.000000, 7.662696)">
                        <mask id="mask-2" fill="white">
                            <use xlink:href="#path-1"></use>
                        </mask>
                        <g id="Clip-20"></g>
                        <path d="M5.13444709,4.77799959 C4.19044325,5.9221501 2.29478665,6.57159096 1.1574883,6.14030358 C0.613299727,5.93402185 0.348296623,5.51723555 0.369729526,4.90173676 C0.473308611,1.94041073 3.4716044,0.591970404 3.90153728,0.413894054 L4.92920115,0.666547344 C5.16854851,1.03895399 6.44528025,3.18917611 5.13444709,4.77799959 M5.91487566,1.94797997 C5.65815888,1.06460973 5.21260946,0.425526782 5.19380588,0.398675896 L5.15404744,0.342265134 L3.87699701,0.0282611548 L3.82377329,0.0480208571 C3.78592709,0.0621235479 2.8876574,0.401305212 1.96333358,1.16348792 C0.729467654,2.18087356 0.0510246506,3.46907867 0.00138636621,4.88882921 C-0.0255441958,5.65722667 0.338735477,6.22404329 1.02673963,6.48498291 C1.31030729,6.59238645 1.63044634,6.64298085 1.96891092,6.64298085 C3.16995024,6.64298085 4.59942128,6.00581013 5.41881152,5.01256638 C6.0896056,4.19947057 6.2611485,3.13969718 5.91487566,1.94797997" id="Fill-19" fill="#231815" mask="url(#mask-2)"></path>
                    </g>
                    <path d="M3.90156915,8.07655769 C3.47163627,8.25463404 0.473340481,9.60307437 0.369761397,12.5644004 C0.348248818,13.1799789 0.613251922,13.5966855 1.15752017,13.8029672 C2.29481852,14.2342546 4.19047512,13.5848934 5.13447896,12.4406632 C6.44531212,10.8518397 5.16850071,8.7016973 4.92915335,8.32929066 L3.90156915,8.07655769 Z" id="Fill-21" fill="#FFD254"></path>
                    <path d="M4.90678026,9.05733211 C4.47724577,9.29014602 1.47711742,10.9823096 1.23713265,12.9115895 C1.18717566,13.3125999 1.42731979,13.5070896 1.95071287,13.4894015 C3.04466735,13.4526707 4.93203763,12.5131287 5.91030224,11.5184508 C7.2687021,10.1372636 6.11865555,9.10912165 5.90153786,8.93614458 L4.90678026,9.05733211 Z" id="Fill-23" fill="#FFA154"></path>
                    <path d="M4.42187876,9.82943451 C4.09170051,10.0144427 1.78945617,11.3568276 1.7099393,12.8251807 C1.69344632,13.1303406 1.89693939,13.2732 2.31476148,13.2495362 C3.18809251,13.2002963 4.64377703,12.4506228 5.3685916,11.676887 C6.37514127,10.6025329 5.39480507,9.84505104 5.21099204,9.71812683 L4.42187876,9.82943451 Z" id="Fill-25" fill="#231815"></path>
                    <path d="M16.447769,8.32927472 L17.4753532,8.07654175 C17.9053658,8.2546181 20.9036616,9.60305843 21.0072407,12.5643845 C21.0286736,13.1799629 20.7636704,13.5966696 20.2195616,13.8029513 C19.0821039,14.2342387 17.1864473,13.5848775 16.2425231,12.440727 C14.9316899,10.8518238 16.2084217,8.70168137 16.447769,8.32927472 M15.958079,12.6752938 C16.7775489,13.6685375 18.2070199,14.3057082 19.4079796,14.3057082 C19.7464442,14.3057082 20.0667426,14.2551138 20.3502305,14.1476306 C21.0382347,13.8867707 21.4025144,13.319954 21.3755838,12.5514769 C21.3259455,11.131806 20.6475025,9.84360094 19.4136366,8.82613562 C18.4893128,8.06403259 17.5910431,7.72477125 17.5531969,7.71066856 L17.4999732,7.69090886 L16.2229227,8.00499251 L16.1831643,8.06140327 C16.164281,8.08825416 15.7188113,8.72725743 15.4620945,9.61070735 C15.1158217,10.8024246 15.2873646,11.8621979 15.958079,12.6752938" id="Fill-27" fill="#231815"></path>
                    <path d="M17.4753931,8.07655769 C17.9053259,8.25463404 20.9036217,9.60307437 21.0072008,12.5644004 C21.0287134,13.1799789 20.7637103,13.5966855 20.2195217,13.8029672 C19.0821437,14.2342546 17.1864871,13.5848934 16.2424832,12.4406632 C14.9316501,10.8518397 16.2084615,8.7016973 16.4478089,8.32929066 L17.4753931,8.07655769 Z" id="Fill-29" fill="#FFD254"></path>
                    <path d="M16.4701819,9.05733211 C16.8997164,9.29014602 19.8998448,10.9823096 20.1398296,12.9115895 C20.1897865,13.3125999 19.9496424,13.5070896 19.4262493,13.4894015 C18.3322949,13.4526707 16.4449246,12.5131287 15.46666,11.5184508 C14.1082601,10.1372636 15.2583067,9.10912165 15.4754244,8.93614458 L16.4701819,9.05733211 Z" id="Fill-31" fill="#FFA154"></path>
                    <path d="M16.9550834,9.82943451 C17.2852617,10.0144427 19.587506,11.3568276 19.6670229,12.8251807 C19.6835159,13.1303406 19.4800228,13.2732 19.0622007,13.2495362 C18.1888697,13.2002963 16.7331852,12.4506228 16.0083706,11.676887 C15.0018209,10.6025329 15.9822368,9.84505104 16.1659702,9.71812683 L16.9550834,9.82943451 Z" id="Fill-33" fill="#231815"></path>
                    <path d="M13.6560657,16.1553677 C11.823672,17.3965639 9.39522054,17.3965639 7.56290654,16.1553677 C5.20257823,14.5566644 4.68818856,11.5845024 4.64627887,9.5076621 C4.605644,11.5718339 4.97295136,14.9795061 7.56290654,16.7338968 C9.39522054,17.9750929 11.823672,17.9750929 13.6560657,16.7338968 C16.2461802,14.9795061 16.6134079,11.5717542 16.572773,9.5076621 C16.5308634,11.5844227 16.016394,14.5565847 13.6560657,16.1553677" id="Fill-35" fill="#FFD6A8"></path>
                    <path d="M7.56293841,16.1553677 C9.39525241,17.3965639 11.8237039,17.3965639 13.6560976,16.1553677 C16.0164259,14.5565847 16.5308952,11.5844227 16.5728049,9.5076621 C16.5526468,8.48637232 16.4328138,7.79382663 16.4328138,7.79382663 L16.1759377,6.9063929 L5.04309831,6.9063929 L4.78622218,7.79382663 C4.78622218,7.79382663 4.66638914,8.486452 4.64631074,9.50774177 C4.68822043,11.5845024 5.2026101,14.5566644 7.56293841,16.1553677" id="Fill-37" fill="#FFECC8"></path>
                    <path d="M4.96630637,7.83472443 C4.94447508,7.96842113 4.70879283,9.48386281 4.90694758,11.2692475 C5.09538184,12.9676258 5.72713458,15.2677189 7.6662944,16.581261 C9.42666078,17.7736953 11.7923274,17.7736953 13.5526938,16.581261 C15.4918536,15.2677986 16.1236063,12.9676258 16.3121203,11.2692475 C16.510275,9.48386281 16.2745928,7.96842113 16.2527615,7.83472443 L16.037317,7.0907079 L5.18159151,7.0907079 L4.96630637,7.83472443 Z M10.6094542,17.843651 C9.50546056,17.843651 8.4017059,17.5246275 7.45953461,16.886421 C5.83039496,15.782985 4.82065824,13.8513944 4.53956054,11.3005603 C4.32889662,9.38944649 4.59326231,7.82787228 4.60465601,7.76237842 L4.60919755,7.74261872 L4.9045573,6.72204603 L16.3144309,6.72204603 L16.6144118,7.76237842 C16.6257259,7.82787228 16.8901712,9.38944649 16.6795073,11.30064 C16.3983299,13.8514741 15.3886729,15.782985 13.7593739,16.8865006 C12.8175213,17.5244681 11.7133683,17.843651 10.6094542,17.843651 L10.6094542,17.843651 Z" id="Fill-39" fill="#231815"></path>
                    <path d="M11.2874909,9.37152731 C11.3047525,9.38084943 11.3247982,9.39128701 11.3462916,9.40220265 L11.4710203,9.09329795 C11.4401722,9.15895116 11.3835988,9.25894481 11.2874909,9.37152731" id="Fill-41" fill="#ED4C77"></path>
                    <path d="M8.08238752,9.32212008 C8.10358139,9.31295732 8.12477526,9.30371488 8.14628784,9.29383503 C8.03760948,9.12882558 7.97594009,8.98086684 7.94566312,8.89577264 L8.08238752,9.32212008 Z" id="Fill-43" fill="#ED4C77"></path>
                    <path d="M15.5014625,9.03896198 C15.5377152,9.00357374 15.5730118,8.96573845 15.6068742,8.92432669 C15.3766099,8.90258551 15.2252251,8.85543257 15.2252251,8.85543257 L15.5014625,9.03896198 Z" id="Fill-45" fill="#ED4C77"></path>
                    <path d="M13.3787078,9.56439477 C13.4131196,9.54677109 13.4473627,9.52960319 13.4821118,9.51061215 L13.2985824,9.38086536 L13.3787078,9.56439477 Z" id="Fill-47" fill="#ED4C77"></path>
                    <path d="M16.8542452,4.5816958 L16.3287009,4.7043175 L16.9067519,4.75682413 C17.5675067,5.06572883 17.8870084,5.67326 17.9490761,6.32787981 C18.0243702,5.5017171 17.730604,4.65260763 16.9067519,4.26745279 L16.8566355,4.26291125 C16.8740049,4.45086745 16.8542452,4.5816958 16.8542452,4.5816958" id="Fill-49" fill="#ED4C77"></path>
                    <path d="M8.01339134,8.50743452 L7.9575984,8.3338157 C7.9575984,8.3338157 7.97466663,8.39860158 8.01339134,8.50743452" id="Fill-51" fill="#ED4C77"></path>
                    <path d="M8.01339134,8.99685366 L7.9575984,8.82323484 C7.9575984,8.82323484 7.97466663,8.88802072 8.01339134,8.99685366" id="Fill-53" fill="#ED4C77"></path>
                    <path d="M18.3783636,5.41666273 C18.2315204,4.78443194 17.8724197,4.27354802 17.3557991,3.95253254 C17.3599422,3.66004114 17.3052843,3.12828205 16.921245,2.66926735 C16.5591962,2.23638646 16.0123783,1.99289593 15.2943362,1.94453247 L15.2889183,1.87545319 L15.2599161,1.80462103 C15.2341807,1.74151746 14.6127859,0.260177199 13.1837132,0.237947534 C12.1748529,0.222330995 11.6377555,0.500241647 11.418885,0.655769626 C10.9132597,0.197711044 10.1688448,-0.123702823 9.14317279,0.046007523 C8.25972288,0.192133708 7.67521813,0.669234907 7.30623756,1.20378266 C7.24337303,1.19732889 5.98544488,1.08044387 5.12087823,1.93775999 C4.71126279,2.34402903 4.46586004,2.88534926 4.38706026,3.55399209 L4.25631158,3.62402748 C4.20762941,3.65008161 3.06156668,4.278966 2.8132159,5.70708255 C2.66023756,6.5863893 2.88213583,7.47637267 3.40664438,8.0877283 C3.7379381,8.47383925 4.34220254,8.92679856 5.36038495,8.94512409 C5.52897983,9.2137923 5.89429529,9.67575501 6.51361854,9.89574106 C7.08529541,10.0988357 7.71402045,10.0414689 8.38346004,9.72563233 C8.73228253,9.95709174 9.18571989,10.1185954 9.76058381,10.1185954 C10.2952909,10.1185954 10.713352,9.98856385 11.0339691,9.79821736 C11.3355436,10.0184424 11.8151148,10.2354008 12.3847998,10.2354008 C12.8073227,10.2354008 13.2795637,10.1158864 13.7652699,9.79001071 L13.7812052,9.77925442 C13.9433463,9.81247941 14.2456378,9.85901032 14.5944603,9.83741806 C15.3180001,9.79264003 15.8751759,9.48110601 16.2059119,8.9363597 L16.2278228,8.90026638 C16.7399019,8.83477252 17.329984,8.62131993 17.7803139,8.06087741 C18.3515924,7.34992651 18.5863983,6.31190473 18.3783636,5.41666273" id="Fill-55" fill="#231815"></path>
                    <path d="M7.25582642,1.69273171 C7.25582642,1.69273171 4.70092879,1.42605541 4.85820964,4.30053436 C5.00138781,1.9467395 7.25582642,2.18218272 7.25582642,2.18218272 L7.25582642,1.69273171 Z" id="Fill-57" fill="#81A7D3"></path>
                    <path d="M15.1201959,2.42833444 L14.8880991,3.04032747 L14.8049171,1.99043394 C14.8049171,1.99043394 14.2969812,0.746847512 13.1760165,0.72939842 C12.0550518,0.711869652 11.6522088,1.09718385 11.6522088,1.09718385 L11.7005723,1.54846995 C11.8364202,1.45174302 12.2732849,1.20466707 13.1760165,1.21876976 C14.2969812,1.23629852 14.8049171,2.47980527 14.8049171,2.47980527 L14.8880991,3.52969881 L15.1201959,2.91778545 C16.3820282,2.95124946 16.7392167,3.61805974 16.8328362,4.09723252 L16.8542691,4.58166393 C16.8542691,4.58166393 17.2000639,2.49223476 15.1201959,2.42833444" id="Fill-59" fill="#81A7D3"></path>
                    <path d="M9.22338284,0.530885121 C7.42230191,0.828874179 7.25585829,2.69106677 7.25585829,2.69106677 L7.25585829,3.18051778 C7.25585829,3.18051778 7.42230191,1.31832519 9.22338284,1.02033613 C11.2312236,0.688086301 11.7573256,2.56748895 11.7573256,2.56748895 L11.6834658,1.87852869 C11.4815662,1.40437551 10.8229626,0.266200722 9.22338284,0.530885121" id="Fill-61" fill="#81A7D3"></path>
                    <path d="M4.48848012,4.05725896 C4.48848012,4.05725896 3.50758618,4.58272362 3.29748,5.79125251 C3.25764189,6.02040131 3.24752301,6.25958932 3.26919494,6.4965464 C3.27580806,6.42388169 3.28505051,6.35177471 3.29748,6.28062385 C3.50758618,5.07209496 4.48848012,4.54670997 4.48848012,4.54670997 L4.87379431,5.00205956 C4.85610619,4.8183262 4.84925403,4.64686298 4.85140529,4.48615604 L4.48848012,4.05725896 Z" id="Fill-63" fill="#81A7D3"></path>
                    <path d="M15.225241,8.36600546 C15.225241,8.36600546 16.6089779,8.73379088 17.3972148,7.75297663 C17.7038885,7.37124787 17.9011668,6.8541492 17.9491319,6.32788778 C17.8869845,5.67326796 17.5674828,5.0657368 16.9067279,4.75683209 L16.3287567,4.70432547 L16.8542213,4.58170377 C16.8542213,4.58170377 17.0709406,2.79416779 15.1202278,2.91774561 L14.8881309,3.52973865 L14.804949,2.47984511 C14.804949,2.47984511 14.2970131,1.23633836 13.1759687,1.21880959 C12.2732371,1.20462723 11.8364521,1.45178286 11.7006041,1.54850979 L11.7573336,2.07803794 C11.7573336,2.07803794 11.7349446,1.99955686 11.6834737,1.87852869 L11.7573336,2.56748895 C11.7573336,2.56748895 11.2312315,0.688086301 9.22339081,1.02033613 C7.4222302,1.31832519 7.25586626,3.18051778 7.25586626,3.18051778 L7.25586626,2.69106677 L7.25586626,2.18217476 C7.25586626,2.18217476 5.00142764,1.94681121 4.85824948,4.30060607 C4.86207394,4.36960567 4.86677483,4.43995977 4.87378634,4.51270416 L4.85139732,4.48617198 C4.84924607,4.64687891 4.85609822,4.81834214 4.87378634,5.0020755 L4.48847215,4.54664623 C4.48847215,4.54664623 3.50765789,5.07211089 3.29747203,6.28063978 C3.28512221,6.35179064 3.2758001,6.42389762 3.26918697,6.49656233 C3.36200976,7.50956578 4.0390186,8.48193436 5.48681517,8.45356962 L5.6093572,7.54279076 L5.69700104,8.54113379 C5.69700104,8.54113379 6.39512407,10.05299 8.08242735,9.32212008 L7.94570296,8.89577264 C7.92889128,8.84860432 7.92148139,8.82039893 7.92148139,8.82039893 L7.94570296,8.89577264 C7.97597992,8.98086684 8.03764932,9.12882558 8.146248,9.29383503 C8.1703899,9.28268036 8.19477082,9.27128666 8.21915174,9.25925555 L7.94570296,8.4064013 C7.92889128,8.3591533 7.92148139,8.3310276 7.92148139,8.3310276 L7.94570296,8.4064013 C8.04394374,8.68239972 8.47419532,9.62704097 9.76056788,9.62704097 C10.9749928,9.62704097 11.3336155,8.85744838 11.418869,8.60383897 L11.4420548,8.5236847 C11.4420548,8.5236847 11.435601,8.55388198 11.418869,8.60383897 L11.2143402,9.31176218 C11.2143402,9.31176218 11.2397569,9.33542601 11.2874829,9.37151934 C11.3562435,9.25893684 11.396719,9.15894319 11.418869,9.09328998 L11.4420548,9.01305603 C11.4420548,9.01305603 11.435601,9.043333 11.418869,9.09328998 L11.329552,9.40219468 C11.6115261,9.60186329 12.3847041,10.0210399 13.3364366,9.47709033 L13.2985904,9.38084146 L13.3852781,9.44896463 C13.420495,9.42777075 13.4557119,9.40578011 13.4912475,9.38187725 L13.2985904,8.89147012 L13.7890772,9.27678432 C13.7890772,9.27678432 14.832756,9.56314065 15.5014785,9.0108251 L15.225241,8.85545647 C15.225241,8.85545647 15.3765462,8.89537426 15.6068901,8.91377946 C15.6718262,8.84629371 15.7321411,8.76948583 15.7857632,8.68128426 L15.225241,8.36600546 Z" id="Fill-65" fill="#0958B4"></path>
                    <path d="M11.4556451,9.19657748 C11.4943698,9.08230445 11.5090522,9.01304806 11.5090522,9.01304806 L11.4556451,9.19657748 Z" id="Fill-67" fill="#ED4C77"></path>
                    <path d="M11.4556451,8.70715833 C11.4943698,8.5928853 11.5090522,8.52362892 11.5090522,8.52362892 L11.4556451,8.70715833 Z" id="Fill-69" fill="#ED4C77"></path>
                    <path d="M8.29372072,11.5065233 C8.27499681,11.6534462 8.18392689,11.7628417 8.09038701,11.7508106 C7.9969268,11.7389388 7.93653223,11.6101024 7.95525614,11.4631794 C7.97398005,11.3162565 8.06504997,11.206861 8.15858985,11.2188922 C8.25205006,11.2307639 8.31252431,11.3596004 8.29372072,11.5065233 M8.06775896,10.8939725 C7.70985339,10.8315064 7.35250554,11.1652701 7.26996098,11.6392639 C7.18733674,12.1132577 7.41050983,12.5481305 7.76849508,12.6105967 C8.12640066,12.6730628 8.48366882,12.3392991 8.56629306,11.8653053 C8.6489173,11.3912318 8.42566454,10.956359 8.06775896,10.8939725" id="Fill-71" fill="#231815"></path>
                    <path d="M13.6883585,11.5065233 C13.6696346,11.6534462 13.5785646,11.7628417 13.4851044,11.7508106 C13.3916442,11.7389388 13.33117,11.6101024 13.3499736,11.4631794 C13.3686975,11.3162565 13.4597674,11.206861 13.5532276,11.2188922 C13.6467675,11.2307639 13.7072417,11.3596004 13.6883585,11.5065233 M13.4623967,10.8939725 C13.1044911,10.8315064 12.747223,11.1652701 12.6645987,11.6392639 C12.5819745,12.1132577 12.8052273,12.5481305 13.1631328,12.6105967 C13.5211181,12.6730628 13.8783863,12.3392991 13.9610105,11.8653053 C14.0435551,11.3912318 13.820382,10.956359 13.4623967,10.8939725" id="Fill-73" fill="#231815"></path>
                    <path d="M11.8865366,14.9855137 C11.456763,15.9698337 9.9317602,16.0168427 9.42573653,15.0745917 C9.28550639,14.8132537 8.887444,15.0456692 9.02791317,15.3071666 C9.68476392,16.5305153 11.7157107,16.5206354 12.2843599,15.2180886 C12.401962,14.9489423 12.0050151,14.7141365 11.8865366,14.9855137" id="Fill-75" fill="#231815"></path>
                    <polygon id="Fill-77" fill="#231815" points="10.4212511 17.6643716 10.8513433 17.6643716 10.8513433 15.9876652 10.4212511 15.9876652"></polygon>
                </g>
            </g>
        </g>
    </g>
</svg>