<?xml version="1.0" encoding="UTF-8"?>
<svg width="133px" height="30px" viewBox="0 0 133 30" version="1.1" xmlns="http://www.w3.org/2000/svg" xmlns:xlink="http://www.w3.org/1999/xlink">
    <title>切片</title>
    <defs>
        <path d="M0.378633592,3.33261918 C1.70009701,6.40262611 5.00536447,7.07354767 5.00536447,7.07354767 L5.00536447,7.07354767 C6.23690687,7.28735588 5.79284368,5.49823171 5.79284368,5.49823171 L5.79284368,5.49823171 C6.04097561,5.81822894 6.25031458,5.90779241 6.39064856,5.92227273 L6.39064856,5.92227273 C6.48968681,5.93264135 6.58711613,5.88920039 6.65057927,5.81268708 L6.65057927,5.81268708 C8.00851164,4.1749806 5.30069152,1.26532982 5.30069152,1.26532982 L5.30069152,1.26532982 L2.1505959,0.0840216186 C-0.913511641,0.523615576 0.378633592,3.33261918 0.378633592,3.33261918" id="path-1"></path>
        <path d="M1.45303769,1.91837445 C1.18220205,2.14165743 0.94944429,2.4076663 0.763881652,2.70603243 L0.763881652,2.70603243 C-0.99431541,6.02095344 0.960885532,5.26547395 0.960885532,5.26547395 L0.960885532,5.26547395 C0.232221452,6.59444568 1.35471452,6.64324972 1.35471452,6.64324972 L1.35471452,6.64324972 C6.0754781,6.31538664 7.26125554,3.4931541 7.26125554,3.4931541 L7.26125554,3.4931541 C8.4025194,0.966069845 5.78444152,0.14623337 5.78444152,0.14623337 L5.78444152,0.14623337 C5.78444152,0.14623337 1.87564856,1.58264551 1.45303769,1.91837445" id="path-3"></path>
    </defs>
    <g id="页面-1" stroke="none" stroke-width="1" fill="none" fill-rule="evenodd">
        <g id="聚合流动性挖矿" transform="translate(-64.000000, -20.000000)">
            <g id="编组" transform="translate(64.000000, 20.000000)">
                <g transform="translate(6.614468, 0.034145)">
                    <path d="M26.7748653,13.4600845 C26.7748653,20.8139426 20.8132633,26.7755446 13.4594052,26.7755446 C6.10554712,26.7755446 0.143945122,20.8139426 0.143945122,13.4600845 C0.143945122,6.10604767 6.10554712,0.144624446 13.4594052,0.144624446 C20.8132633,0.144624446 26.7748653,6.10604767 26.7748653,13.4600845" id="Fill-1" fill="#FCCAA5"></path>
                    <path d="M13.4286926,14.5740861 C16.8081494,14.5740861 19.5477905,17.3137271 19.5477905,20.6931839 C19.5477905,24.0728194 16.8081494,26.8122817 13.4286926,26.8122817 C10.0492359,26.8122817 7.30959479,24.0728194 7.30959479,20.6931839 C7.30959479,17.3137271 10.0492359,14.5740861 13.4286926,14.5740861" id="Fill-3" fill="#313A56"></path>
                    <path d="M11.5576384,23.2539126 C11.5576384,23.2539126 14.2636709,26.1615969 12.9089563,27.7996609 C12.8445994,27.8772468 12.7457399,27.9215816 12.6454502,27.9106767 C12.5051163,27.8954813 12.2968499,27.8052027 12.0497906,27.4869932 C12.0497906,27.4869932 12.4938538,29.2761174 11.2623114,29.0621304 C11.2623114,29.0621304 7.95704393,28.3912088 6.63540175,25.3212019 C6.63540175,25.3212019 5.34343528,22.5123771 8.40754282,22.0726044 L11.5576384,23.2539126 Z" id="Fill-5" fill="#394260"></path>
                    <path d="M11.5576384,23.2539126 C11.5576384,23.2539126 14.2143305,26.0761451 12.8880403,27.7167119 C12.8088455,27.8146775 12.7235725,27.8386326 12.6007579,27.8100295 C12.4636418,27.7782086 12.1924486,27.6650475 11.9763164,27.3865248 C11.9763164,27.3865248 12.4899209,29.2253469 11.2623114,29.0621304 C11.2623114,29.0621304 7.95704393,28.3912088 6.63540175,25.3212019 C6.63540175,25.3212019 5.34343528,22.5123771 8.40754282,22.0726044 L11.5576384,23.2539126 Z" id="Fill-7" fill="#394260"></path>
                    <path d="M19.7284906,21.7773131 C19.7284906,21.7773131 22.3465685,22.5971495 21.2053046,25.1244126 C21.2053046,25.1244126 20.0195272,27.9466451 15.2987636,28.2745082 C15.2987636,28.2745082 14.3244703,28.1415037 15.0533132,26.8123532 C15.0533132,26.8123532 12.9497336,27.6522119 14.7081095,24.3369333 C14.8934933,24.038746 15.1262511,23.7729159 15.3970868,23.5494541 C15.8196976,23.2137252 19.7284906,21.7773131 19.7284906,21.7773131" id="Fill-9" fill="#394260"></path>
                    <path d="M11.5576384,23.2539126 L8.40754282,22.0726044 C7.8176038,22.1571623 7.38962985,22.3300323 7.08214648,22.5533153 C6.38726982,23.5311839 7.02923074,24.9273729 7.02923074,24.9273729 C8.35087292,27.9973799 11.6561404,28.6683014 11.6561404,28.6683014 C11.8145301,28.6958319 11.6968998,28.4652194 11.8043402,28.434471 C11.9764951,27.9408887 11.9834672,27.2213419 11.9807856,27.2971401 C12.1613427,27.5298979 12.4348599,27.6471706 12.56268,27.6959746 C12.585205,27.3012518 12.4436196,27.0931642 12.4436196,27.0931642 C12.726254,27.4574963 12.8043762,27.3466592 12.9416711,27.3429051 C13.8205015,25.6749866 11.5576384,23.2539126 11.5576384,23.2539126" id="Fill-11" fill="#3F4867"></path>
                </g>
                <g transform="translate(12.871397, 22.022781)">
                    <mask id="mask-2" fill="white">
                        <use xlink:href="#path-1"></use>
                    </mask>
                    <g id="Clip-14"></g>
                    <path d="M6.33517641,1.36635241 C8.86404836,1.36635241 10.9138183,3.41487098 10.9138183,5.94195524 C10.9138183,8.4690395 8.86404836,10.5175581 6.33517641,10.5175581 C3.80630446,10.5175581 1.75653451,8.4690395 1.75653451,5.94195524 C1.75653451,3.41487098 3.80630446,1.36635241 6.33517641,1.36635241" id="Fill-13" fill="#FFE1C1" mask="url(#mask-2)"></path>
                </g>
                <path d="M26.3429584,21.811458 C26.3429584,21.811458 22.4341655,23.2478701 22.0115546,23.5835991 C21.740719,23.8070608 21.5079612,24.0728909 21.3225773,24.3710783 C20.6997447,25.5454145 20.5431427,26.208649 20.6001702,26.5758413 C20.8713634,26.6730919 21.2240754,26.5368696 21.2240754,26.5368696 C21.1275399,26.7127787 21.1028697,26.7479963 21.0644343,26.8818945 C21.3059518,26.9103189 21.667781,26.8464982 21.667781,26.8464982 C21.4466433,27.2496232 21.391046,27.5283247 21.4276937,27.7303341 C21.591804,27.8168585 21.6177256,27.9150029 21.6177256,27.9150029 C26.338668,27.5869611 27.5244454,24.7647285 27.5244454,24.7647285 C27.9568886,23.8068821 27.8492694,23.094486 27.5489368,22.5787363 C27.0319357,22.0274114 26.3429584,21.811458 26.3429584,21.811458" id="Fill-15" fill="#3F4867"></path>
                <g transform="translate(20.558481, 21.665243)">
                    <mask id="mask-4" fill="white">
                        <use xlink:href="#path-3"></use>
                    </mask>
                    <g id="Clip-18"></g>
                    <path d="M0.124423503,3.00339745 C2.65365299,3.00339745 4.70395926,5.05227356 4.70395926,7.57989412 C4.70395926,10.1073359 2.65365299,12.1563908 0.124423503,12.1563908 C-2.40480599,12.1563908 -4.45511225,10.1073359 -4.45511225,7.57989412 C-4.45511225,5.05227356 -2.40480599,3.00339745 0.124423503,3.00339745" id="Fill-17" fill="#FFDFBC" mask="url(#mask-4)"></path>
                </g>
                <g transform="translate(0.000000, 0.749223)">
                    <path d="M15.4890815,10.1930201 C15.4890815,10.1930201 14.8439027,10.5039001 14.6381391,10.1408194 C14.4325543,9.77809631 14.885556,8.24550624 12.8549144,7.0754605 C12.8549144,7.0754605 11.5325571,6.28243944 11.4826804,5.98639731 C11.4331613,5.69035518 11.1989734,4.75110075 10.9340371,5.18408024 C10.9340371,5.18408024 7.88780654,0.416300305 6.07097312,0.163162833 C4.25413969,-0.0901534091 2.76999612,0.24146383 0.105259424,2.32090951 C0.105259424,2.32090951 -0.386177661,3.40675485 0.754728659,2.87294942 C1.89545621,2.33932275 1.5590122,0.500500693 5.67750166,0.474042822 C5.67750166,0.474042822 7.40566547,0.736476303 7.98845371,3.50615064 L8.15899972,4.69246438 C8.15899972,4.69246438 7.67149557,4.50296882 8.2684066,5.58613262 C8.8654964,6.66929642 8.46576802,9.50136128 10.2738417,10.8199644 C12.0817367,12.1383887 12.5297328,11.6816329 12.3345166,13.7512463 C12.1394792,15.8208596 15.4890815,10.1930201 15.4890815,10.1930201" id="Fill-19" fill="#394260"></path>
                    <path d="M36.4389782,6.88734146 C36.4389782,6.88734146 37.2425467,6.81940909 36.5355137,5.15524473 C35.828302,3.49108038 35.5816002,3.79552467 35.3921046,3.81268653 C35.2026091,3.83002716 34.2411872,4.84239828 33.9996698,4.80968348 C33.7579735,4.77714745 32.479236,5.82956292 31.903241,5.85047894 C31.327246,5.87121619 29.9158616,7.11527245 29.9158616,7.11527245 C29.9158616,7.11527245 29.7126007,6.38303298 28.8909766,7.46440909 C28.8909766,7.46440909 26.2135473,7.2756286 24.9816473,9.51435782 L24.8259392,9.63288193 L23.9941251,9.58944096 C24.0395326,9.78912639 24.1689616,9.95967239 24.3493399,10.0567442 C24.6494938,10.2126311 25.5277878,10.706571 24.9755692,11.6079263 C24.4235292,12.5094604 26.1407881,13.3024814 26.1407881,13.3024814 L26.5893205,13.0845615 L26.6640461,12.5362758 C26.6640461,12.5362758 29.2290295,12.9242054 30.5329735,10.2710887 C30.5329735,10.2710887 32.6075924,7.74400443 31.9064588,7.87557871 C31.9064588,7.87557871 33.1498,6.245023 34.0339935,5.58268237 C34.0339935,5.58268237 34.7862551,4.9462633 34.9964879,4.66684673 C35.206542,4.38743016 35.9450384,3.9700036 36.2707562,5.04977079 C36.5964741,6.12953797 36.038356,6.4302281 36.4389782,6.88734146" id="Fill-21" fill="#3F4867"></path>
                    <path d="M18.7726642,6.84736863 C18.7726642,6.84736863 23.6738061,5.73667433 26.2963532,10.1694404 C28.9190791,14.6023853 30.5810983,17.2176028 27.3712937,20.4291951 C24.1616678,23.6407874 16.1107878,23.4146441 13.8868965,21.5041355 C11.6628264,19.5936269 8.9201462,15.664633 13.3005328,9.19246563 C13.3005328,9.19246563 14.5234943,7.30019152 18.7726642,6.84736863" id="Fill-23" fill="#394260"></path>
                    <path d="M18.7726642,6.84736863 C18.3103665,6.89653021 17.8838228,6.96285366 17.4908876,7.0420485 C15.8258294,7.74121563 15.2693203,8.60163276 15.2693203,8.60163276 C10.8889336,15.0739789 13.6317925,19.0029728 15.8556839,20.9134814 C17.3412576,22.1897162 21.4266748,22.7138681 24.9327002,21.9644667 C25.8833959,21.5822578 26.7255786,21.0754465 27.3712937,20.4291951 C30.5810983,17.2176028 28.9190791,14.6023853 26.2963532,10.1694404 C23.6738061,5.73667433 18.7726642,6.84736863 18.7726642,6.84736863" id="Fill-25" fill="#3F4867"></path>
                    <path d="M25.7030355,9.44476289 C26.3853983,9.44476289 26.9385108,9.66518556 26.9385108,9.93709382 C26.9385108,10.2090021 26.3853983,10.4294248 25.7030355,10.4294248 C25.0206727,10.4294248 24.4675601,10.2090021 24.4675601,9.93709382 C24.4675601,9.66518556 25.0206727,9.44476289 25.7030355,9.44476289" id="Fill-27" fill="#FFDFBC"></path>
                    <path d="M16.0136088,10.4698088 C15.3721842,10.6941644 14.9249031,11.0842392 15.0146454,11.3407733 C15.1043876,11.5973074 15.6971869,11.6234077 16.3386116,11.3990521 C16.9802149,11.1745177 17.427496,10.7848004 17.337575,10.5279088 C17.2478327,10.2710172 16.6550334,10.2454532 16.0136088,10.4698088" id="Fill-29" fill="#FFDFBC"></path>
                    <path d="M16.6731785,15.020652 C16.7407533,15.5583904 16.9699357,15.9724203 17.1849953,15.9454261 C17.4000549,15.918432 17.5196516,15.4606035 17.4520768,14.9228652 C17.3845019,14.384948 17.1554983,13.9709181 16.94026,13.9979123 C16.7252004,14.0250852 16.6056037,14.4829137 16.6731785,15.020652" id="Fill-31" fill="#181C2A"></path>
                    <path d="M26.0252137,13.8393617 C26.0927885,14.3771001 26.3219709,14.79113 26.5370305,14.7641358 C26.7520901,14.7371416 26.8718656,14.2791344 26.8042907,13.7415748 C26.7367159,13.2036577 26.5075335,12.7896278 26.2924739,12.816622 C26.0774144,12.8436161 25.9576389,13.3016233 26.0252137,13.8393617" id="Fill-33" fill="#181C2A"></path>
                    <path d="M23.8922087,18.993212 C23.8922087,18.993212 23.1111652,21.0195632 21.6368539,19.3153545 L22.4745674,18.4776411 L23.8922087,18.993212 Z" id="Fill-35" fill="#DCB48A"></path>
                    <path d="M22.7967277,18.7354444 C22.7967277,18.7354444 24.7696268,20.2228058 25.5676534,18.3487662 C26.3655012,16.4749053 24.5366903,15.771269 24.5366903,15.771269 C24.5366903,15.771269 23.5121628,15.0923028 21.8948361,15.3847695 C20.2773305,15.6772363 19.2528031,16.7380539 19.2528031,16.7380539 C19.2528031,16.7380539 17.7103807,18.708629 19.768374,19.8311221 C19.7681953,19.8309433 21.1863729,20.8032701 22.7967277,18.7354444" id="Fill-37" fill="#FFE1C1"></path>
                    <path d="M24.2859662,17.0689918 C24.6072148,17.227024 24.9579604,17.2105772 25.0693337,17.0321653 C25.180707,16.8537535 25.0105186,16.5809514 24.6890912,16.4227404 C24.3676638,16.2647083 24.017097,16.2811551 23.9057237,16.4595669 C23.7943503,16.6379788 23.9645388,16.9107809 24.2859662,17.0689918" id="Fill-39" fill="#181C2A"></path>
                    <path d="M20.5785212,16.6637931 C20.277116,16.8574004 20.1105029,17.1664927 20.2059658,17.353843 C20.3012499,17.5413721 20.622856,17.5363665 20.9240825,17.3425805 C21.2253089,17.1489733 21.3921007,16.8400597 21.2966379,16.6525306 C21.201175,16.4648228 20.8797476,16.4701858 20.5785212,16.6637931" id="Fill-41" fill="#181C2A"></path>
                    <path d="M19.3609943,4.64085366 C19.3609943,4.64085366 18.9054899,3.36247367 17.7202488,3.33494318 C17.7202488,3.33494318 18.5416942,5.27780904 18.5036163,6.05885255 C18.4657172,6.83953853 19.3609943,4.64085366 19.3609943,4.64085366" id="Fill-43" fill="#313954"></path>
                    <path d="M22.2599726,4.8047852 C22.2599726,4.8047852 23.8460147,6.00111003 22.5520818,7.89928354 C22.5520818,7.89928354 21.992176,8.26307927 21.5071746,8.30222977 C21.0219945,8.34155904 22.9146261,6.15985726 22.2599726,4.8047852" id="Fill-45" fill="#394260"></path>
                    <path d="M21.3593144,8.25962902 C21.3593144,8.25962902 23.9618394,5.58899293 20.9147149,3.5840941 C20.9147149,3.5840941 20.0187227,2.85060324 19.4168061,2.6714763 C18.8148896,2.49252813 18.6248577,2.59603562 18.4621775,2.42817115 C18.2994974,2.26012791 18.2170847,1.58277065 18.2871623,1.48105086 C18.3572399,1.3791523 17.6325087,2.67880585 19.1159372,2.93712763 C19.1159372,2.93712763 19.4933194,3.28572797 19.1858361,3.69367974 C19.1858361,3.69367974 18.0906947,4.63901233 18.0452873,5.09398046 C17.9998799,5.54876982 17.7392341,6.71935186 17.0674187,7.37364787 C16.3956032,8.02812264 21.3593144,8.25962902 21.3593144,8.25962902" id="Fill-47" fill="#3F4867"></path>
                    <path d="M22.0874958,4.76944249 C22.0874958,4.76944249 21.3397034,3.69003284 21.5844387,3.18322159 C21.8291741,2.67641034 22.1069817,1.65921244 21.1239288,1.4491584 C20.1410546,1.23910435 19.6714274,1.19244554 19.3553631,0.586774806 C19.3553631,0.586774806 19.1531749,1.21461294 20.4172533,1.78989288 C20.4172533,1.78989288 20.8786572,2.31386599 20.1737694,2.74434271 C19.4690604,3.17481943 19.9921397,3.42849321 19.9921397,3.42849321 C19.9921397,3.42849321 20.3822145,3.32051649 20.9079753,3.62817863 C21.5215119,3.98714759 22.0874958,4.76944249 22.0874958,4.76944249" id="Fill-49" fill="#3F4867"></path>
                    <path d="M48.9967421,15.3494805 L48.933994,15.4955351 C48.6661975,16.1013846 48.2991839,16.6582512 47.8479699,17.1432526 C46.8622354,18.2103272 45.4787391,18.8218973 44.0260589,18.8326235 C43.2984674,18.8294056 42.5796357,18.6729824 41.91658,18.3737224 C41.2626415,18.0937695 40.6780655,17.6736614 40.2041479,17.1432526 C39.6969791,16.6226761 39.2992172,16.0057429 39.0346384,15.3287432 C38.477593,13.9146772 38.477593,12.3420428 39.0346384,10.9279769 C39.3040439,10.2536587 39.700912,9.63744055 40.2036116,9.11346743 C41.1825528,8.0369181 42.5701609,7.42338151 44.0253438,7.42409597 C44.752399,7.43160491 45.4701581,7.58784936 46.1348228,7.88299764 C46.7825043,8.17367669 47.3647562,8.59235463 47.8467185,9.11346743 C48.2705808,9.57594387 48.616142,10.1042075 48.8701734,10.6776997 L46.9487598,12.2002787 L46.9278438,12.1584466 C46.7871523,11.6430545 46.5218585,11.1703882 46.1550237,10.7819223 C45.6085256,10.1835811 44.8351692,9.84284659 44.0248075,9.8433829 C43.2062224,9.83301427 42.4228549,10.1748214 41.8738541,10.7819223 C41.297144,11.4235256 40.9775043,12.2551609 40.9758954,13.117902 C40.9698172,13.9818945 41.2905295,14.8163901 41.8738541,15.4538818 C42.9396772,16.6412682 44.7661642,16.7399489 45.9537294,15.6741257 C46.0239857,15.6110201 46.091203,15.5445179 46.1550237,15.4747978 C46.4490994,15.158376 46.682751,14.7908261 46.8443585,14.3902039 L46.8860118,14.1606639 L48.9967421,15.3494805 Z" id="Fill-51" fill="#FFFFFF"></path>
                    <path d="M53.0270804,15.7249141 C53.5313889,16.3060934 54.2625557,16.6407497 55.0319792,16.6427367 C55.8144529,16.6457553 56.5604576,16.3112777 57.0787101,15.7249141 C58.2483983,14.3793168 58.2483983,12.3778146 57.0787101,11.0322173 C56.5685022,10.4326247 55.8192797,10.0890299 55.0319792,10.0936314 C54.2577289,10.0942142 53.5233442,10.4379878 53.0270804,11.0322173 C52.4385715,11.6664911 52.1171441,12.5031319 52.1291217,13.3681971 C52.1205407,14.238804 52.4410743,15.0804504 53.0263653,15.7249141 L53.0270804,15.7249141 Z M50.1240441,15.3078451 C49.9304368,14.6794706 49.8317561,14.0257109 49.831041,13.3681971 C49.8246053,12.8764024 49.8389069,12.365122 49.9561796,11.8874501 L50.165161,11.2824945 L50.1858983,11.2617572 C50.1901887,11.2174224 50.2044903,11.1746965 50.2277303,11.1366186 C50.4755047,10.4825014 50.844306,9.88112112 51.3148271,9.36376247 C51.7781973,8.84872783 52.338997,8.4305862 52.9646899,8.13329268 C53.6125502,7.83510532 54.3190468,7.68547533 55.032158,7.69530765 L55.053074,7.69530765 C55.7667215,7.6810061 56.474112,7.83099363 57.1207209,8.13329268 C57.7492741,8.42540188 58.31061,8.84425859 58.7695111,9.36376247 C59.2647023,9.88576912 59.6483415,10.5030599 59.8971885,11.1782719 L59.9181045,11.2408412 C59.9181045,11.2617572 59.9181045,11.2824945 59.9390205,11.2824945 L59.9806738,11.407633 L60.1244044,11.8951372 C60.2524033,12.3712001 60.2763584,12.8753298 60.2731405,13.3681971 C60.2761796,14.0274986 60.1703481,14.6828672 59.9599365,15.3078451 L59.8347979,15.7249141 C59.5725432,16.3352328 59.2128592,16.898714 58.7696899,17.3935477 C58.3038168,17.9005377 57.7433747,18.3115285 57.1198271,18.6032802 C56.4746483,18.9141602 55.7683304,19.077913 55.0521802,19.0829185 L55.0312641,19.0829185 C54.3220859,19.075589 53.6232763,18.9118362 52.984712,18.6032802 C52.3547287,18.3118861 51.7873146,17.901074 51.3139332,17.3935477 C50.8770208,16.8979989 50.5243088,16.334339 50.2697411,15.7249141 L50.2488251,15.6414288 L50.1240441,15.3078451 Z" id="Fill-53" fill="#FFFFFF"></path>
                    <polygon id="Fill-55" fill="#FFFFFF" points="61.109245 18.8951928 61.464281 7.38244332 68.5650017 14.4736892 68.5440856 7.90391366 70.6952178 7.88317641 70.7787032 19.604371 63.4684648 12.5547784 63.2596621 18.8951928 61.1085299 18.8951928"></polygon>
                    <polygon id="Fill-57" fill="#FFFFFF" points="81.4295874 8.50867267 76.6888017 18.7700363 71.6131808 8.55032594 73.4511091 7.73692517 76.6255173 14.1189928 79.5911229 7.75766242"></polygon>
                    <polygon id="Fill-59" fill="#FFFFFF" points="82.6198699 10.198258 82.3066659 10.2189953 82.2641188 7.8620995 91.5778258 7.69530765 91.6407526 10.0311086 84.9576373 10.1562472 84.9576373 12.2002966 89.1136684 12.2002966 89.1136684 14.5360976 84.9581736 14.5360976 84.9581736 16.4550083 91.6412889 16.5801469 91.5783621 18.9159479 82.2646551 18.7700721 82.3064871 16.4550083 82.6196911 16.4550083 82.6196911 10.1980793"></polygon>
                    <path d="M97.8227773,12.8675712 C98.9506335,12.8050019 99.2638374,12.6798634 99.3265855,12.596378 L99.3682388,12.5756408 C99.4309868,12.4921555 99.5979575,12.179309 99.4933774,10.9695765 L99.4933774,10.9279232 C99.4724613,10.6776461 99.409892,10.5941608 99.3264067,10.5525075 C99.1381626,10.4273689 98.7205572,10.3231463 97.7389345,10.3231463 C96.8409757,10.3438836 96.1101664,10.3438836 95.5043169,10.3231463 L95.1491021,10.3231463 L95.1491021,12.8675712 L97.822241,12.8675712 L97.8227773,12.8675712 Z M100.203628,14.6195114 L102.208706,17.8731145 L100.287292,19.0411937 L97.781124,15.0367591 C97.426088,15.0574964 97.0708732,15.0574964 96.7576692,15.0574964 L95.1487446,15.0574964 L95.1487446,18.8116538 L92.9359369,18.8116538 L92.956853,10.3231463 L92.5181529,10.3231463 L92.4764996,8.13322118 L93.0194223,8.13322118 C93.6039982,8.11230516 94.1680157,8.11230516 94.8155184,8.13322118 L97.7600292,8.13322118 C98.9715495,8.13322118 99.7858441,8.30001303 100.412431,8.6337755 C100.798036,8.85795233 101.115531,9.18224002 101.331484,9.57213609 C101.544935,9.94880322 101.666498,10.3703415 101.68652,10.8027846 C101.737648,11.3934387 101.723704,11.9880258 101.644688,12.5756408 C101.577113,13.1153456 101.351864,13.6232295 100.997186,14.0354717 C100.769255,14.275559 100.500743,14.4734568 100.203628,14.6195114 L100.203628,14.6195114 Z" id="Fill-61" fill="#FFFFFF"></path>
                    <polygon id="Fill-63" fill="#FFFFFF" points="106.364433 10.0310908 103.043791 10.0310908 103.043791 7.69528977 112.024808 7.69528977 112.024808 10.0310908 108.703452 10.0310908 108.661799 18.91593 106.343696 18.8742767"></polygon>
                    <polygon id="Fill-65" fill="#FFFFFF" points="113.214233 10.1980793 112.901029 10.2188165 112.859197 7.8620995 122.173083 7.69530765 122.235652 10.0311086 115.552537 10.1562472 115.552537 12.2002966 119.708746 12.2002966 119.708746 14.5360976 115.553252 14.5360976 115.553252 16.4550083 122.236367 16.5801469 122.173798 18.9159479 112.860091 18.7700721 112.901744 16.4550083 113.214948 16.4550083 113.214948 10.1980793"></polygon>
                    <path d="M128.418016,12.8675712 C129.545872,12.8050019 129.859076,12.6798634 129.921646,12.596378 L129.963656,12.5756408 C130.026047,12.4921555 130.193375,12.179309 130.088795,10.9695765 L130.088795,10.9279232 C130.067879,10.6776461 130.005131,10.5941608 129.921646,10.5525075 C129.733759,10.4273689 129.315975,10.3231463 128.334531,10.3231463 C127.436572,10.3438836 126.705405,10.3438836 126.099913,10.3231463 L125.744877,10.3231463 L125.744877,12.8675712 L128.418016,12.8675712 Z M130.798867,14.6195114 L132.803766,17.8731145 L130.882352,19.0411937 L128.376363,15.0367591 C128.021148,15.0574964 127.666112,15.0574964 127.352908,15.0574964 L125.743984,15.0574964 L125.743984,18.8116538 L123.530997,18.8116538 L123.551913,10.3231463 L123.113213,10.3231463 L123.071738,8.13322118 L123.614482,8.13322118 C124.199237,8.11230516 124.763255,8.11230516 125.410757,8.13322118 L128.355268,8.13322118 C129.56661,8.13322118 130.381083,8.30001303 131.00767,8.6337755 C131.393097,8.85795233 131.710591,9.18224002 131.926544,9.57213609 C132.139995,9.94880322 132.261737,10.3703415 132.281581,10.8027846 C132.332709,11.3934387 132.318765,11.9880258 132.239748,12.5756408 C132.172352,13.1153456 131.947103,13.6232295 131.592424,14.0354717 C131.364493,14.275559 131.095803,14.4734568 130.798867,14.6195114 L130.798867,14.6195114 Z" id="Fill-67" fill="#FFFFFF"></path>
                </g>
            </g>
        </g>
    </g>
</svg>