<?xml version="1.0" encoding="UTF-8"?>
<svg width="36px" height="36px" viewBox="0 0 36 36" version="1.1" xmlns="http://www.w3.org/2000/svg" xmlns:xlink="http://www.w3.org/1999/xlink">
    <title>切片</title>
    <defs>
        <polygon id="path-1" points="0 0.264848108 9.11713738 0.264848108 9.11713738 10.1683022 0 10.1683022"></polygon>
        <polygon id="path-3" points="0.200358983 0.133540541 23.687792 0.133540541 23.687792 15.4582589 0.200358983 15.4582589"></polygon>
    </defs>
    <g id="页面-1" stroke="none" stroke-width="1" fill="none" fill-rule="evenodd">
        <g id="行情" transform="translate(-20.000000, -77.000000)">
            <g id="nav2" transform="translate(0.000000, 60.000000)">
                <g id="logo" transform="translate(20.000000, 17.000000)">
                    <g id="编组" transform="translate(2.000000, 0.000000)">
                        <path d="M13.6121595,33.2771643 C13.9055108,33.6418832 14.720327,34.3892724 16.4668622,34.3892724 C17.5386892,34.3892724 18.2619973,33.7206941 18.6087649,33.3043103 L17.8048946,32.0183805 L18.948527,31.2473481 C18.9507162,31.2512886 19.3128081,31.7407914 19.8789324,32.1930778 C20.3539865,32.5722454 21.081673,33.0074562 21.848327,32.9247049 C22.7064892,32.8327589 24.6412946,32.3804724 25.1321108,30.1921589 L23.8667595,29.8340076 L24.1084459,28.4824022 C24.1246459,28.4832778 25.9464892,28.6019319 26.6185703,27.5419265 C27.0726081,26.8260616 27.2219108,25.6587859 26.9745324,24.7664724 C26.8786459,24.4223319 26.6855595,23.976613 26.3037649,23.7449968 L24.6933973,23.4498941 L24.8067973,22.0816508 C25.1097811,22.0750832 25.828273,21.9577427 26.1014838,21.6394346 C26.1290676,21.6074724 26.157527,21.568067 26.1789811,21.5150886 L24.0668514,20.4949265 L7.74863514,19.9283643 L5.24332703,21.6674562 C5.28798649,22.0877805 5.53098649,22.9660832 6.67549459,23.9647914 L5.82302432,25.0475643 L4.63254324,24.2038508 C4.33568919,24.5733859 3.95608378,25.1881103 3.93944595,25.9337481 C3.91448919,27.0690616 4.30066216,27.7034886 5.33921351,28.1518346 L6.45175946,26.9814941 L7.53321892,27.8282724 C7.52402432,27.8431589 6.52444054,29.4478346 6.92024595,30.8335914 C7.15054865,31.639213 8.32964595,32.9413427 9.65235405,33.1480022 C10.7736568,33.3231373 11.8143973,32.7027211 12.7456784,31.3051427 L15.0535216,27.8435968 L13.6121595,33.2771643 Z M16.4668622,35.7693373 C13.6428081,35.7693373 12.5267595,34.1839265 12.2947054,33.7929373 C11.2377649,34.5517103 10.216727,34.6327103 9.4400027,34.5114292 C7.4565973,34.2018778 5.93204595,32.3966724 5.5935973,31.2127589 C5.44473243,30.6917319 5.42327838,30.1658886 5.47406757,29.6724454 L5.30068378,29.6133373 C3.38864595,28.9627103 2.51822432,27.783613 2.56025676,25.9030995 C2.60185135,24.0370346 4.0419,22.8167805 4.10275946,22.7659914 L4.10845135,22.7607373 C4.0707973,22.6626616 4.03708378,22.5637103 4.00731081,22.4643211 C3.79495946,21.7594022 3.86063514,21.2777805 3.87595946,21.1884616 L3.92455946,20.9034292 L7.33838108,18.533413 L24.4048622,19.1262454 L27.5275216,20.6341589 L27.5761216,21.0036941 C27.6531811,21.5947751 27.5043162,22.1271859 27.1444135,22.5431319 C27.1255865,22.5650238 27.1063216,22.5864778 27.0866189,22.6070562 C27.6628135,22.9809697 28.0809486,23.5943805 28.3038081,24.3969373 C28.6575811,25.6714832 28.4491703,27.2323751 27.7836568,28.2809968 C27.4811108,28.75824 27.0726081,29.0936238 26.6360838,29.3283049 L26.5940514,29.7613265 C26.3453595,32.3191751 24.6259703,34.0149211 21.9950027,34.2968886 C21.2283486,34.3787643 20.5208027,34.1747319 19.9165865,33.8603643 C19.5601865,34.3726346 18.4095486,35.7693373 16.4668622,35.7693373 L16.4668622,35.7693373 Z" id="Fill-1" fill="#231815"></path>
                        <path d="M15.8847568,27.6665351 C22.4107297,27.4918378 24.5408108,22.0722811 24.5408108,22.0722811 L26.2750865,22.3805189 C26.6735189,22.1357676 26.9760649,21.7390865 26.892,21.0932757 L24.2360757,19.8104108 L7.54350811,19.2307135 L4.5557027,21.3047514 C4.5557027,21.3047514 4.48477297,21.7224486 4.69887568,22.3625676 L6.67527568,22.0722811 C6.67527568,22.0722811 9.35834595,27.8412324 15.8847568,27.6665351" id="Fill-3" fill="#4BB994"></path>
                        <path d="M26.2564346,22.3908957 C26.2630022,22.387393 26.2691319,22.3838903 26.2752616,22.3803876 L24.8465968,22.1264416 C24.8286454,22.1273173 24.8176995,22.1273173 24.8176995,22.1273173 L26.2564346,22.3908957 Z" id="Fill-5" fill="#63DFD2"></path>
                        <path d="M26.5369573,23.0861384 L24.8175681,22.771333 C24.8175681,22.771333 25.6433303,22.75776 26.2563032,22.3908519 L24.8175681,22.1277114 C24.8175681,22.1277114 24.8289519,22.1272735 24.8469032,22.1263978 L24.5404168,22.0721059 C24.5404168,22.0721059 22.4107735,27.4921005 15.8848005,27.66636 C9.35838973,27.8414951 6.67531946,22.0721059 6.67531946,22.0721059 L4.96424919,22.3234249 L4.69891946,22.3628303 C4.75802757,22.5388411 4.83858973,22.7323654 4.94804919,22.9381492 C5.19586541,23.4035708 5.59167081,23.9346681 6.2221573,24.4845924 L4.5443627,23.2958627 C4.5443627,23.2958627 3.38759514,24.2604195 3.26106,25.7267384 C3.35826,27.0262411 4.04391405,27.8130357 5.52293027,28.3165492 L6.95247081,26.8130141 C6.95247081,26.8130141 6.62803297,27.3200303 6.38897351,28.0490303 L6.95247081,27.4566357 C6.95247081,27.4566357 6.2615627,28.5380951 6.15341676,29.8117654 C6.17049243,30.0009114 6.20333027,30.190933 6.25718432,30.3792032 C6.74668703,32.0929005 10.3824924,35.4493654 13.3199465,31.0438411 L13.0467357,32.0723222 C13.1386816,31.9510411 13.2293141,31.8231924 13.3199465,31.6879005 L12.9858762,32.9466843 C13.3011195,33.3858357 14.2818762,34.435333 16.466687,34.435333 C17.9062978,34.435333 18.8349519,33.4909168 19.2263789,32.9904681 L18.3901086,31.6524357 C18.3901086,31.6524357 18.7841627,32.1957924 19.4238438,32.7120032 C19.4334762,32.6962411 19.4387303,32.6870465 19.4387303,32.6870465 L18.3901086,31.0088141 C18.3901086,31.0088141 19.96326,33.1765492 21.9217086,32.9668249 C23.7120276,32.7750519 25.3556708,31.7636465 25.8110222,29.6672789 L24.0544168,29.170333 C24.0544168,29.170333 24.8398978,29.2316303 25.6696005,28.9833762 L24.0544168,28.5262735 C24.0544168,28.5262735 26.2922059,28.7009708 27.2015951,27.2674897 C27.5304114,26.7486519 27.725687,26.0691276 27.7725357,25.3790951 C27.7029195,24.3882681 27.3084276,23.4718735 26.5369573,23.0861384" id="Fill-7" fill="#63DFD2"></path>
                        <path d="M13.3201216,31.0437535 C10.3826676,35.4497157 6.74642432,32.092813 6.25692162,30.3791157 C6.20306757,30.1908454 6.17066757,30.0008238 6.15359189,29.8116778 C6.11987838,30.2057319 6.14133243,30.618613 6.25692162,31.0231751 C6.7311,32.6838941 10.1619973,35.8879914 13.0469108,32.0722346 L13.3201216,31.0437535 Z" id="Fill-9" fill="#A0EBEE"></path>
                        <path d="M16.466687,34.4354643 C14.2818762,34.4354643 13.3011195,33.385967 12.9858762,32.9468157 L12.8654708,33.4008535 C12.8654708,33.4008535 13.7043681,35.0790859 16.466687,35.0790859 C18.4251357,35.0790859 19.4387303,33.3312373 19.4387303,33.3312373 L19.2263789,32.9905995 C18.8349519,33.4910481 17.9062978,34.4354643 16.466687,34.4354643" id="Fill-11" fill="#A0EBEE"></path>
                        <path d="M21.9216649,32.9667373 C19.9632162,33.1764616 18.3900649,31.0087265 18.3900649,31.0087265 L19.4386865,32.6869589 C19.4386865,32.6869589 19.4334324,32.6961535 19.4238,32.7119157 C20.0617297,33.2272508 20.9435351,33.71544 21.9216649,33.6107968 C23.8796757,33.4010724 25.6629892,32.2119049 25.9077405,29.6943373 L25.8109784,29.6671914 C25.355627,31.7635589 23.7119838,32.7749643 21.9216649,32.9667373" id="Fill-13" fill="#A0EBEE"></path>
                        <path d="M6.95225189,26.8128827 L5.52271135,28.3164178 C4.04369514,27.8129043 3.35804108,27.0261097 3.26084108,25.726607 C3.25558703,25.7896557 3.25164649,25.85358 3.24989514,25.91838 C3.21486811,27.4919692 3.87906811,28.4009205 5.52271135,28.9604773 L6.38919243,28.0488989 C6.62825189,27.3203368 6.95225189,26.8128827 6.95225189,26.8128827" id="Fill-15" fill="#A0EBEE"></path>
                        <path d="M27.7726232,25.3792265 C27.7257746,26.0692589 27.5300611,26.7483454 27.2012449,27.2671832 C26.2922935,28.7011022 24.0545043,28.525967 24.0545043,28.525967 L25.6692503,28.9830697 C26.239753,28.8127508 26.8308341,28.4957562 27.2012449,27.9112427 C27.632953,27.2308427 27.8356719,26.2746049 27.7726232,25.3792265" id="Fill-17" fill="#A0EBEE"></path>
                        <g transform="translate(0.000000, 11.688125)">
                            <mask id="mask-2" fill="white">
                                <use xlink:href="#path-1"></use>
                            </mask>
                            <g id="Clip-20"></g>
                            <path d="M7.68725027,7.37621027 C6.27390973,9.08946973 3.43584486,10.0614697 1.73265568,9.41609676 C0.918277297,9.10698324 0.521596216,8.48306432 0.553558378,7.56141568 C0.708990811,3.12743189 5.19770432,1.10899946 5.84132595,0.842356216 L7.38032595,1.22064811 C7.7384773,1.77801568 9.64963946,4.9974373 7.68725027,7.37621027 M8.85583946,3.13925351 C8.47141784,1.81654541 7.80459081,0.859431892 7.77613135,0.819588649 L7.71658541,0.735085946 L5.80454757,0.264848108 L5.72529892,0.294621081 C5.66838,0.315637297 4.32334216,0.823529189 2.93933676,1.96453459 C1.09209892,3.48777243 0.0763151351,5.41644811 0.0018827027,7.54215081 C-0.0383983784,8.69278865 0.507147568,9.54131838 1.53738,9.93186973 C1.96164486,10.0929941 2.44151514,10.1683022 2.94809351,10.1683022 C4.74585568,10.1683022 6.88644486,9.21469135 8.11326649,7.72735622 C9.11766649,6.51016703 9.3746773,4.9234427 8.85583946,3.13925351" id="Fill-19" fill="#231815" mask="url(#mask-2)"></path>
                        </g>
                        <path d="M5.84141351,12.5303497 C5.19779189,12.796993 0.708640541,14.8158632 0.553645946,19.249847 C0.521683784,20.1710578 0.918364865,20.7949768 1.73274324,21.1040903 C3.43593243,21.7499011 6.2739973,20.7774632 7.68733784,19.0642038 C9.64972703,16.6854308 7.73856486,13.466447 7.38041351,12.9086416 L5.84141351,12.5303497 Z" id="Fill-21" fill="#FFD254"></path>
                        <path d="M7.34648108,13.9986389 C6.7032973,14.3471578 2.21151892,16.8809254 1.85205405,19.7693416 C1.77762162,20.3700551 2.13708649,20.6607795 2.92081622,20.6345092 C4.55876757,20.5793416 7.38457297,19.1730065 8.84914054,17.6834822 C10.8828973,15.6155741 9.16131892,14.0761362 8.83600541,13.8173741 L7.34648108,13.9986389 Z" id="Fill-23" fill="#FFA154"></path>
                        <path d="M6.62045838,15.1547935 C6.12613946,15.4319449 2.67904216,17.4416205 2.56038811,19.6400043 C2.53543135,20.097107 2.84016649,20.3107719 3.46583676,20.275307 C4.77322054,20.2017503 6.9527773,19.0791341 8.03773946,17.9206151 C9.54521514,16.3124368 8.07714486,15.1779989 7.80174486,14.9879773 L6.62045838,15.1547935 Z" id="Fill-25" fill="#231815"></path>
                        <path d="M24.6261016,12.9087292 L26.1646638,12.5304373 C26.8082854,12.7970805 31.2969989,14.815513 31.4524314,19.2494968 C31.4843935,20.1711454 31.0877124,20.7950643 30.2728962,21.1041778 C28.5701449,21.7495508 25.7316422,20.7775508 24.3187395,19.0642914 C22.3559124,16.6855184 24.2675124,13.4660968 24.6261016,12.9087292 M23.8927232,19.4154373 C25.1195449,20.9027724 27.2601341,21.8568211 29.0578962,21.8568211 C29.5649124,21.8568211 30.0443449,21.7810751 30.4690476,21.6199508 C31.4988422,21.2293995 32.0439503,20.3808697 32.004107,19.2302319 C31.9296746,17.1045292 30.9138908,15.1758535 29.066653,13.6526157 C27.6822097,12.5116103 26.3376097,12.0037184 26.2811286,11.9827022 L26.2014422,11.9529292 L24.2889665,12.423167 L24.2298584,12.5076697 C24.2013989,12.547513 23.5345719,13.5046265 23.1501503,14.8273346 C22.6317503,16.6115238 22.8883232,18.1982481 23.8927232,19.4154373" id="Fill-27" fill="#231815"></path>
                        <path d="M26.1645324,12.5303497 C26.8085919,12.796993 31.2973054,14.8158632 31.4523,19.249847 C31.4842622,20.1710578 31.0875811,20.7949768 30.2732027,21.1040903 C28.5700135,21.7499011 25.7319486,20.7774632 24.3186081,19.0642038 C22.3562189,16.6854308 24.2673811,13.466447 24.6259703,12.9086416 L26.1645324,12.5303497 Z" id="Fill-29" fill="#FFD254"></path>
                        <path d="M24.6594649,13.9986389 C25.3026486,14.3471578 29.794427,16.8809254 30.1538919,19.7693416 C30.2287622,20.3700551 29.8688595,20.6607795 29.0851297,20.6345092 C27.4471784,20.5793416 24.6218108,19.1730065 23.1568054,17.6834822 C21.1234865,15.6155741 22.8450649,14.0761362 23.1703784,13.8173741 L24.6594649,13.9986389 Z" id="Fill-31" fill="#FFA154"></path>
                        <path d="M25.3854876,15.1547935 C25.8798065,15.4319449 29.3269038,17.4416205 29.4455578,19.6400043 C29.4705146,20.097107 29.1662173,20.3107719 28.5401092,20.275307 C27.2327254,20.2017503 25.0531686,19.0791341 23.9682065,17.9206151 C22.4611686,16.3124368 23.9288011,15.1779989 24.2042011,14.9879773 L25.3854876,15.1547935 Z" id="Fill-33" fill="#231815"></path>
                        <path d="M20.4461076,24.6260141 C17.7026157,26.4841978 14.0668103,26.4841978 11.3233184,24.6260141 C7.78952919,22.2323546 7.01937243,17.7826086 6.95632378,14.6730843 C6.89590216,17.7633438 7.44582649,22.8654681 11.3233184,25.4924951 C14.0668103,27.3506789 17.7026157,27.3506789 20.4461076,25.4924951 C24.3240373,22.8654681 24.8739616,17.7633438 24.8131022,14.6730843 C24.7500535,17.7826086 23.9798968,22.2323546 20.4461076,24.6260141" id="Fill-35" fill="#FFD6A8"></path>
                        <path d="M11.3233622,24.6260141 C14.0668541,26.4841978 17.7026595,26.4841978 20.4461514,24.6260141 C23.9799405,22.2323546 24.7500973,17.7826086 24.8131459,14.6730843 C24.7829351,13.1437168 24.6034216,12.1069168 24.6034216,12.1069168 L24.219,10.7785168 L7.55051351,10.7785168 L7.16609189,12.1069168 C7.16609189,12.1069168 6.98657838,13.1437168 6.95636757,14.6730843 C7.01941622,17.7826086 7.78957297,22.2323546 11.3233622,24.6260141" id="Fill-37" fill="#FFECC8"></path>
                        <path d="M7.43584378,12.1681703 C7.40300595,12.3682622 7.05010865,14.6375757 7.3469627,17.3105757 C7.62849243,19.8531 8.57509784,23.2971324 11.4779627,25.2639 C14.1137465,27.0489649 17.6558546,27.0489649 20.2912005,25.2639 C23.1945032,23.2971324 24.1406708,19.8531 24.4230762,17.3105757 C24.7194924,14.6375757 24.3665951,12.3682622 24.3341951,12.1681703 L24.0110708,11.0543108 L7.75809243,11.0543108 L7.43584378,12.1681703 Z M15.8848005,27.1536081 C14.2315249,27.1536081 12.5791249,26.6763649 11.1684114,25.7205649 C8.72921676,24.0686027 7.21780054,21.1766838 6.79660054,17.3574243 C6.48091946,14.4957162 6.8771627,12.1581 6.89423838,12.0595865 L6.90080595,12.0302514 L7.34302216,10.5021973 L24.4265789,10.5021973 L24.8753627,12.0595865 C24.8924384,12.1581 25.2882438,14.4957162 24.9730005,17.3574243 C24.5522384,21.1766838 23.0403843,24.0686027 20.6007519,25.7210027 C19.1909141,26.675927 17.5372005,27.1536081 15.8848005,27.1536081 L15.8848005,27.1536081 Z" id="Fill-39" fill="#231815"></path>
                        <path d="M16.8997962,14.4691832 C16.9186232,14.4831941 16.9400773,14.4985184 16.9632827,14.5151562 L17.0963854,14.0523616 C17.0635476,14.1508751 17.0026881,14.3006157 16.8997962,14.4691832" id="Fill-41" fill="#ED4C77"></path>
                        <path d="M12.1011373,14.3951886 C12.1326616,14.3816157 12.1650616,14.3676049 12.1970238,14.3527184 C12.0341481,14.1057778 11.9417643,13.8842319 11.8962292,13.7568211 L12.1011373,14.3951886 Z" id="Fill-43" fill="#ED4C77"></path>
                        <path d="M23.209127,13.9289351 C23.2634189,13.8842757 23.3163973,13.8361135 23.3667486,13.783573 C23.0221703,13.7559892 22.7958081,13.6964432 22.7958081,13.6964432 L23.209127,13.9289351 Z" id="Fill-45" fill="#ED4C77"></path>
                        <path d="M19.9676384,14.6271551 C19.9921573,14.6131443 20.0158005,14.6000092 20.0407573,14.5851227 L19.9107195,14.4831065 L19.9676384,14.6271551 Z" id="Fill-47" fill="#ED4C77"></path>
                        <path d="M25.2345211,7.29766216 L24.4477265,7.48111622 L25.3133319,7.55992703 C26.3019697,8.02228378 26.7805265,8.93211081 26.8737859,9.91199189 C26.9863103,8.6751 26.5467211,7.40405676 25.3133319,6.82698649 L25.2384616,6.82041892 C25.2638562,7.10194865 25.2345211,7.29766216 25.2345211,7.29766216" id="Fill-49" fill="#ED4C77"></path>
                        <path d="M11.8963168,13.024187 L11.8604141,12.9112249 C11.8604141,12.9112249 11.8709222,12.9532573 11.8963168,13.024187" id="Fill-51" fill="#ED4C77"></path>
                        <path d="M11.8963168,13.7568211 L11.8604141,13.6438589 C11.8604141,13.6438589 11.8709222,13.6863292 11.8963168,13.7568211" id="Fill-53" fill="#ED4C77"></path>
                        <g transform="translate(3.940541, 0.304341)">
                            <mask id="mask-4" fill="white">
                                <use xlink:href="#path-3"></use>
                            </mask>
                            <g id="Clip-56"></g>
                            <path d="M23.5759914,8.24356703 C23.3561968,7.29696162 22.8185319,6.53205892 22.0448724,6.05131297 C22.05144,5.61347514 21.9691265,4.81748595 21.3946832,4.13008054 C20.8522022,3.4816427 20.0334454,3.11736162 18.9585535,3.04468054 L18.9506724,2.94135081 L18.9068886,2.83539405 C18.8683589,2.74125892 17.9379535,0.523172432 15.79824,0.489896757 C14.2876995,0.466253514 13.4838292,0.882637297 13.1558886,1.11556703 C12.3993049,0.429475135 11.2845697,-0.0517086486 9.74907243,0.202237297 C8.42592649,0.421156216 7.55068865,1.13570757 6.99857514,1.9356373 C6.90444,1.9264427 5.02086162,1.75130757 3.72661297,3.03504811 C3.11320216,3.64320486 2.74585622,4.4536427 2.62764,5.45454 L2.43192649,5.55962108 C2.35924541,5.59858865 0.643358919,6.53994 0.271196757,8.67834 C0.0426454054,9.99491838 0.374526486,11.3272589 1.16000757,12.2427778 C1.65607784,12.8207238 2.56065081,13.4989346 4.08476432,13.5260805 C4.33783459,13.9284535 4.88469405,14.6202373 5.81203459,14.9494914 C6.66756973,15.2537886 7.60892108,15.1679724 8.61113189,14.6951076 C9.13391027,15.0414373 9.81212108,15.2835616 10.6729103,15.2835616 C11.4737157,15.2835616 12.0998238,15.0887238 12.5796941,14.8036914 C13.0315427,15.1333832 13.7495968,15.4582589 14.6025049,15.4582589 C15.2347427,15.4582589 15.9418508,15.2791832 16.6690995,14.7914319 L16.6927427,14.7752319 C16.9357427,14.8251454 17.388467,14.8947616 17.9108076,14.8623616 C18.9935805,14.7953724 19.8280995,14.3286373 20.3232941,13.5133832 L20.3561319,13.4590914 C21.1223481,13.3610157 22.0063427,13.0413941 22.680613,12.2024968 C23.5357103,11.138113 23.8872941,9.58422649 23.5759914,8.24356703" id="Fill-55" fill="#231815" mask="url(#mask-4)"></path>
                        </g>
                        <path d="M10.86372,2.97230595 C10.86372,2.97230595 7.03833081,2.57299784 7.27388757,6.87650595 C7.48799027,3.35278703 10.86372,3.70480865 10.86372,3.70480865 L10.86372,2.97230595 Z" id="Fill-57" fill="#FF8C93"></path>
                        <path d="M22.6383178,4.07373081 L22.2906746,4.98968757 L22.1663286,3.41784973 C22.1663286,3.41784973 21.4058043,1.55616324 19.7275719,1.52989297 C18.0493395,1.5036227 17.4459989,2.08069297 17.4459989,2.08069297 L17.51868,2.75627676 C17.7218368,2.61135243 18.3759665,2.24137946 19.7275719,2.26283351 C21.4058043,2.28866595 22.1663286,4.15079027 22.1663286,4.15079027 L22.2906746,5.72262811 L22.6383178,4.80623351 C24.5271503,4.85658486 25.0621881,5.85485514 25.2022962,6.57247135 L25.2346962,7.29753081 C25.2346962,7.29753081 25.7522205,4.16917946 22.6383178,4.07373081" id="Fill-59" fill="#FF8C93"></path>
                        <path d="M13.8092741,1.23268865 C11.1126308,1.67884541 10.8635011,4.46699676 10.8635011,4.46699676 L10.8635011,5.1999373 C10.8635011,5.1999373 11.1126308,2.41178595 13.8092741,1.96562919 C16.8154686,1.46824541 17.6031389,4.28179135 17.6031389,4.28179135 L17.4928038,3.25024541 C17.1906957,2.54051027 16.2046849,0.836445405 13.8092741,1.23268865" id="Fill-61" fill="#FF8C93"></path>
                        <path d="M6.72006649,6.5124 C6.72006649,6.5124 5.25155838,7.29919459 4.93719081,9.10877838 C4.87720703,9.45160541 4.86232054,9.80975676 4.89472054,10.1648432 C4.90479081,10.0558216 4.91836378,9.94811351 4.93719081,9.84171892 C5.25155838,8.03213514 6.72006649,7.24534054 6.72006649,7.24534054 L7.29713676,7.92705405 C7.27086649,7.65209189 7.26035838,7.39551892 7.26342324,7.15470811 L6.72006649,6.5124 Z" id="Fill-63" fill="#FF8C93"></path>
                        <path d="M22.795633,12.9636778 C22.795633,12.9636778 24.8670438,13.5144778 26.0474546,12.0455319 C26.5067465,11.4741535 26.8018492,10.7000562 26.8736546,9.91194811 C26.780833,8.93206703 26.3022762,8.02224 25.3132005,7.55988324 L24.4475951,7.48151027 L25.2343897,7.29761838 C25.2343897,7.29761838 25.5592654,4.62155351 22.6384492,4.80632108 L22.2908059,5.72271568 L22.16646,4.15087784 C22.16646,4.15087784 21.4054978,2.28875351 19.7272654,2.26292108 C18.37566,2.24146703 17.7215303,2.61144 17.5183735,2.75636432 L17.6033141,3.54928865 C17.6033141,3.54928865 17.5696005,3.43151027 17.4929789,3.25024541 L17.6033141,4.28179135 C17.6033141,4.28179135 16.8156438,1.46824541 13.8094492,1.96562919 C11.1123681,2.41178595 10.8636762,5.1999373 10.8636762,5.1999373 L10.8636762,4.46699676 L10.8636762,3.70515892 C10.8636762,3.70515892 7.48794649,3.35269946 7.27384378,6.87685622 C7.27953568,6.98018595 7.28654108,7.08526703 7.29748703,7.19428865 L7.26333568,7.15444541 C7.26070865,7.39525622 7.27077892,7.65226703 7.29748703,7.92722919 L6.71997892,7.24507784 C6.71997892,7.24507784 5.25190865,8.03187243 4.93710324,9.84145622 C4.91827622,9.94785081 4.90470324,10.0559968 4.89463297,10.1645805 C5.03386541,11.6812508 6.04746,13.1370616 8.2147573,13.0945914 L8.39864919,11.7311643 L8.5295627,13.2259427 C8.5295627,13.2259427 9.57511946,15.4895643 12.1010059,14.3954076 L11.8960978,13.75704 C11.8711411,13.6861103 11.8601951,13.6440778 11.8601951,13.6440778 L11.8960978,13.75704 C11.941633,13.8844508 12.0340168,14.1055589 12.1968924,14.3524995 C12.2327951,14.3358616 12.2691357,14.3192238 12.3059141,14.3012724 L11.8960978,13.0240995 C11.8711411,12.9536076 11.8601951,12.9111373 11.8601951,12.9111373 L11.8960978,13.0240995 C12.0432114,13.4374184 12.6877086,14.8516346 14.6137573,14.8516346 C16.4320978,14.8516346 16.968887,13.6992454 17.0962978,13.31964 L17.130887,13.1996724 C17.130887,13.1996724 17.1216924,13.2452076 17.0962978,13.31964 L16.7902492,14.3796454 C16.7902492,14.3796454 16.8283411,14.4151103 16.8997086,14.4689643 C17.0030384,14.3003968 17.06346,14.1506562 17.0962978,14.0525805 L17.130887,13.9321751 C17.130887,13.9321751 17.1216924,13.9777103 17.0962978,14.0525805 L16.9631951,14.5149373 C17.3852708,14.8139805 18.5424762,15.44184 19.9676384,14.6270238 L19.9107195,14.4829751 L20.0407573,14.5849914 C20.0932978,14.553467 20.1458384,14.5206292 20.1992546,14.4847265 L19.9107195,13.7504724 L20.6454114,14.3271049 C20.6454114,14.3271049 22.2080546,14.7561859 23.2089519,13.9291103 L22.795633,13.6961805 C22.795633,13.6961805 23.022433,13.7561643 23.3670114,13.7837481 C23.4642114,13.6830454 23.5544059,13.5678941 23.6349681,13.435667 L22.795633,12.9636778 Z" id="Fill-65" fill="#ED4C77"></path>
                        <path d="M17.096473,14.052493 C17.1218676,13.9780605 17.1310622,13.9325254 17.1310622,13.9325254 L17.096473,14.052493 Z" id="Fill-67" fill="#ED4C77"></path>
                        <path d="M17.096473,13.3198589 C17.1218676,13.2449886 17.1310622,13.1998914 17.1310622,13.1998914 L17.096473,13.3198589 Z" id="Fill-69" fill="#ED4C77"></path>
                        <path d="M12.4175189,17.6657497 C12.3894973,17.8855443 12.2533297,18.0492957 12.1132216,18.0313443 C11.9731135,18.013393 11.8824811,17.8207443 11.9109405,17.6009497 C11.9389622,17.3807173 12.0751297,17.2169659 12.2152378,17.2349173 C12.3549081,17.2528686 12.4455405,17.4459551 12.4175189,17.6657497 M12.0795081,16.7484795 C11.5431568,16.65522 11.0081189,17.154793 10.8846486,17.8645281 C10.7611784,18.5742632 11.0948108,19.2253281 11.6311622,19.3185876 C12.1670757,19.4122849 12.7016757,18.9127119 12.8255838,18.2029768 C12.9494919,17.4928038 12.6149838,16.8421768 12.0795081,16.7484795" id="Fill-71" fill="#231815"></path>
                        <path d="M20.4944449,17.6657497 C20.4664232,17.8855443 20.3302557,18.0492957 20.1901476,18.0313443 C20.0500395,18.013393 19.959407,17.8207443 19.9878665,17.6009497 C20.0158881,17.3807173 20.1524935,17.2169659 20.2921638,17.2349173 C20.4318341,17.2528686 20.5224665,17.4459551 20.4944449,17.6657497 M20.1564341,16.7484795 C19.6205205,16.65522 19.0854827,17.154793 18.9615746,17.8645281 C18.8381043,18.5742632 19.1721746,19.2253281 19.7080881,19.3185876 C20.2444395,19.4122849 20.7786016,18.9127119 20.9029476,18.2029768 C21.0264178,17.4928038 20.6919097,16.8421768 20.1564341,16.7484795" id="Fill-73" fill="#231815"></path>
                        <path d="M17.7968384,22.8744876 C17.1532168,24.3482497 14.8698924,24.4187416 14.112433,23.0080281 C13.9022708,22.6166011 13.3063735,22.9646822 13.5169735,23.3561092 C14.5003573,25.1875849 17.5411411,25.1731362 18.3922978,23.2225686 C18.5683086,22.8197578 17.9741627,22.4681741 17.7968384,22.8744876" id="Fill-75" fill="#231815"></path>
                        <polygon id="Fill-77" fill="#231815" points="15.6027892 26.8854762 16.2468486 26.8854762 16.2468486 24.3753519 15.6027892 24.3753519"></polygon>
                    </g>
                </g>
            </g>
        </g>
    </g>
</svg>